# xmcd
#
# Track frame offsets: 
#        150
#        18093
#        37818
#        56752
#        73478
#        92675
#        111120
#        129125
#        147677
#        167618
#        188127
#        208196
#
# Disc length: 3038 seconds
#
# Revision: 1
# Processed by: cddbd v1.5.2PL0 Copyright (c) Steve Scherf et al.
# Submitted via: ExactAudioCopyFreeDBPlugin 1.0
#
DISCID=a90bdc0c
DTITLE=ต่าย อรทัย - ต่าย อรทัย - ลำนำดอกหญ้า 2_2 ฝากให้กอดเก็บไว้ อยู่
DTITLE=ในใจเสมอ
DYEAR=2011
DGENRE=Country
TTITLE0=ผู้หญิงคนหนึ่งคิดถึงอ้าย
TTITLE1=มื้อใด๋สิคิดฮอด
TTITLE2=สบายดีบ่อ้าย
TTITLE3=นั่งงอนที่โรงงาน
TTITLE4=เก็บความหลายใจไปใช้ที่อื่น
TTITLE5=ไม่ร้องไห้ ไม่ใช่ไม่เจ็บ
TTITLE6=แค่ถามก็รู้สึกดี
TTITLE7=ขอบคุณเธอที่ให้ใจ
TTITLE8=มาจากดิน
TTITLE9=ไหมแท้ที่แม่ทอ
TTITLE10=เบิ่งนครพนม
TTITLE11=บั๊ดสะหลบ...อย่าจบแค่พบหน้า
EXTD=
EXTT0=
EXTT1=
EXTT2=
EXTT3=
EXTT4=
EXTT5=
EXTT6=
EXTT7=
EXTT8=
EXTT9=
EXTT10=
EXTT11=
PLAYORDER=
